<svg xmlns="http://www.w3.org/2000/svg" width="420.6" height="420.6" viewBox="0 0 420.6 420.6"><title>codepen</title><g id="Layer_2" data-name="Layer 2"><g id="Layer_1-2" data-name="Layer 1"><path d="M210.3,0C94.15,0,0,94.15,0,210.3S94.15,420.6,210.3,420.6s210.3-94.15,210.3-210.3S326.45,0,210.3,0Zm0,386.06c-96.92,0-175.76-78.85-175.76-175.76S113.38,34.54,210.3,34.54,386.06,113.39,386.06,210.3,307.21,386.06,210.3,386.06Z"/><path d="M340.23,169.23c0-.16-.06-.32-.09-.49-.05-.31-.11-.63-.2-.94s-.12-.36-.17-.54-.18-.55-.29-.81-.16-.37-.25-.55-.24-.5-.38-.74-.21-.35-.32-.52-.3-.46-.47-.68l-.38-.49c-.18-.2-.36-.41-.56-.6s-.29-.3-.44-.44-.42-.36-.63-.53l-.51-.38-.19-.14L216.5,82.15a11.17,11.17,0,0,0-12.4,0L85.24,161.39l-.18.14c-.17.12-.34.25-.5.38s-.43.35-.63.53-.3.29-.45.44-.38.4-.55.6l-.39.49c-.16.22-.32.44-.47.68s-.22.34-.32.52-.26.49-.38.74-.17.36-.25.55-.2.54-.29.81-.12.35-.17.54-.14.62-.19.94c0,.16-.07.32-.09.49a10.85,10.85,0,0,0-.1,1.46v79.24a10.91,10.91,0,0,0,.1,1.46c0,.16.06.32.09.48.06.31.11.63.19.94s.12.36.17.54.18.55.29.82.16.36.25.54.24.5.38.74l.32.51c.15.23.3.46.47.68s.25.33.39.49.36.41.55.6.29.3.45.44.41.36.63.53.33.26.5.38l.18.14L204.1,338.45a11.16,11.16,0,0,0,12.4,0l118.86-79.24.19-.14.51-.38c.22-.17.43-.35.63-.53s.3-.29.44-.44.38-.4.56-.6.26-.31.38-.49.32-.44.47-.68l.32-.51c.14-.25.26-.49.38-.74s.17-.36.25-.54.2-.55.29-.82.13-.36.17-.54.14-.62.2-.94c0-.16.07-.32.09-.48a11.65,11.65,0,0,0,.1-1.46V170.68A11.44,11.44,0,0,0,340.23,169.23Zm-118.76-56.9L309,170.7l-39.11,26.16-48.45-32.41Zm-22.35,0v52.12l-48.45,32.41L111.56,170.7ZM102.62,191.6l28,18.7-28,18.7Zm96.51,116.67-87.56-58.37,39.11-26.16,48.45,32.4v52.12Zm11.18-71.54L170.77,210.3l39.53-26.44,39.52,26.44Zm11.18,71.54V256.15l48.45-32.4L309,249.91ZM318,229l-28-18.7,28-18.7Z"/></g></g></svg>