<?xml version="1.0" encoding="utf-8"?>
<!-- Generator: Adobe Illustrator 21.1.0, SVG Export Plug-In . SVG Version: 6.00 Build 0)  -->
<svg version="1.1" id="Layer_1" xmlns="http://www.w3.org/2000/svg" xmlns:xlink="http://www.w3.org/1999/xlink" x="0px" y="0px"
	 viewBox="0 0 420.6 420.6" style="enable-background:new 0 0 420.6 420.6;" xml:space="preserve">
<title>codepen</title>
<path d="M210.3,0C94.2,0,0,94.1,0,210.3s94.2,210.3,210.3,210.3s210.3-94.1,210.3-210.3S326.5,0,210.3,0z M210.3,386.1
	c-96.9,0-175.8-78.9-175.8-175.8S113.4,34.5,210.3,34.5s175.8,78.8,175.8,175.8S307.2,386.1,210.3,386.1z"/>
<g>
	<path d="M210.3,104.6c34.4,0,38.5,0.1,52.1,0.8c12.6,0.6,19.4,2.7,23.9,4.4c6,2.3,10.3,5.1,14.8,9.6c4.5,4.5,7.3,8.8,9.6,14.8
		c1.8,4.5,3.9,11.4,4.4,23.9c0.6,13.6,0.8,17.7,0.8,52.1s-0.1,38.5-0.8,52.1c-0.6,12.6-2.7,19.4-4.4,23.9c-2.3,6-5.1,10.3-9.6,14.8
		c-4.5,4.5-8.8,7.3-14.8,9.6c-4.5,1.8-11.4,3.9-23.9,4.4c-13.6,0.6-17.7,0.8-52.1,0.8s-38.5-0.1-52.1-0.8
		c-12.6-0.6-19.4-2.7-23.9-4.4c-6-2.3-10.3-5.1-14.8-9.6c-4.5-4.5-7.3-8.8-9.6-14.8c-1.8-4.5-3.9-11.4-4.4-23.9
		c-0.6-13.6-0.8-17.7-0.8-52.1s0.1-38.5,0.8-52.1c0.6-12.6,2.7-19.4,4.4-23.9c2.3-6,5.1-10.3,9.6-14.8c4.5-4.5,8.8-7.3,14.8-9.6
		c4.5-1.8,11.4-3.9,23.9-4.4C171.8,104.7,175.9,104.6,210.3,104.6 M210.3,81.3c-35,0-39.4,0.1-53.2,0.8c-13.7,0.6-23.1,2.8-31.3,6
		c-8.5,3.3-15.7,7.7-22.8,14.9c-7.2,7.2-11.6,14.4-14.9,22.8c-3.2,8.2-5.4,17.6-6,31.3c-0.6,13.8-0.8,18.1-0.8,53.2
		c0,35,0.1,39.4,0.8,53.2c0.6,13.7,2.8,23.1,6,31.3c3.3,8.5,7.7,15.7,14.9,22.8c7.2,7.2,14.4,11.6,22.8,14.9
		c8.2,3.2,17.6,5.4,31.3,6c13.8,0.6,18.1,0.8,53.2,0.8s39.4-0.1,53.2-0.8c13.7-0.6,23.1-2.8,31.3-6c8.5-3.3,15.7-7.7,22.8-14.9
		c7.2-7.2,11.6-14.4,14.9-22.8c3.2-8.2,5.4-17.6,6-31.3c0.6-13.8,0.8-18.1,0.8-53.2s-0.1-39.4-0.8-53.2c-0.6-13.7-2.8-23.1-6-31.3
		c-3.3-8.5-7.7-15.7-14.9-22.8c-7.2-7.2-14.4-11.6-22.8-14.9c-8.2-3.2-17.6-5.4-31.3-6C249.7,81.5,245.3,81.3,210.3,81.3L210.3,81.3
		z"/>
	<path d="M210.3,144.1c-36.6,0-66.2,29.6-66.2,66.2s29.6,66.2,66.2,66.2s66.2-29.6,66.2-66.2S246.9,144.1,210.3,144.1z M210.3,253.3
		c-23.7,0-43-19.2-43-43c0-23.7,19.2-43,43-43c23.7,0,43,19.2,43,43C253.3,234,234,253.3,210.3,253.3z"/>
	<circle cx="279.1" cy="141.5" r="15.5"/>
</g>
</svg>
