<svg xmlns="http://www.w3.org/2000/svg" width="420.6" height="420.6" viewBox="0 0 420.6 420.6"><title>twitter</title><g id="Layer_2" data-name="Layer 2"><g id="Layer_1-2" data-name="Layer 1"><path d="M210.3,0C94.15,0,0,94.15,0,210.3S94.15,420.6,210.3,420.6s210.3-94.15,210.3-210.3S326.45,0,210.3,0Zm0,386.06c-96.92,0-175.76-78.85-175.76-175.76S113.38,34.54,210.3,34.54,386.06,113.39,386.06,210.3,307.21,386.06,210.3,386.06Z"/><path d="M176.62,323c94.34,0,145.94-78.16,145.94-145.94,0-2.22,0-4.43-.15-6.63A104.36,104.36,0,0,0,348,143.9,102.38,102.38,0,0,1,318.54,152a51.47,51.47,0,0,0,22.55-28.37,102.79,102.79,0,0,1-32.57,12.45,51.34,51.34,0,0,0-87.41,46.78A145.62,145.62,0,0,1,115.4,129.24a51.33,51.33,0,0,0,15.88,68.47A50.91,50.91,0,0,1,108,191.29v.65a51.31,51.31,0,0,0,41.15,50.28,51.21,51.21,0,0,1-23.16.88,51.35,51.35,0,0,0,47.92,35.62,102.92,102.92,0,0,1-63.7,22A104.41,104.41,0,0,1,98,300a145.21,145.21,0,0,0,78.62,23"/></g></g></svg>